<?xml version="1.0" standalone="no"?>
<!DOCTYPE svg PUBLIC "-//W3C//DTD SVG 20010904//EN"
 "http://www.w3.org/TR/2001/REC-SVG-20010904/DTD/svg10.dtd">
<svg version="1.0" xmlns="http://www.w3.org/2000/svg"
 width="32.000000pt" height="32.000000pt" viewBox="0 0 32.000000 32.000000"
 preserveAspectRatio="xMidYMid meet">

<g transform="translate(0.000000,32.000000) scale(0.100000,-0.100000)"
fill="#000000" stroke="none">
<path d="M130 290 c-11 -21 -6 -40 11 -40 5 0 9 7 9 15 0 8 5 15 10 15 6 0 13
-7 16 -15 8 -21 24 -19 24 3 0 41 -51 57 -70 22z"/>
<path d="M37 243 c-12 -11 -7 -50 7 -62 19 -16 32 5 16 24 -14 16 -10 18 38
15 33 -2 44 13 16 24 -21 8 -69 8 -77 -1z"/>
<path d="M181 230 c-31 -15 -41 -24 -34 -31 8 -8 20 -6 41 5 17 9 43 16 57 16
22 0 24 -3 15 -19 -14 -27 3 -35 25 -12 46 52 -23 78 -104 41z"/>
<path d="M92 193 c1 -5 -12 -23 -30 -40 -56 -56 -35 -93 44 -78 45 8 33 29
-12 22 -37 -6 -46 10 -19 33 8 7 15 19 15 26 0 10 7 13 25 8 28 -7 32 1 11 22
-15 15 -38 19 -34 7z"/>
<path d="M190 183 c0 -5 16 -19 35 -33 37 -27 53 -52 36 -58 -21 -7 -11 -23
11 -20 35 5 33 33 -8 77 -32 36 -75 55 -74 34z"/>
<path d="M110 132 c0 -8 52 -42 64 -42 13 0 5 23 -11 36 -20 15 -53 19 -53 6z"/>
<path d="M196 102 c-3 -2 -2 -10 1 -18 8 -20 33 -17 33 4 0 17 -23 26 -34 14z"/>
<path d="M126 62 c-9 -14 3 -41 24 -52 13 -7 22 -4 35 10 20 23 11 48 -11 29
-12 -10 -17 -8 -28 6 -8 11 -15 14 -20 7z"/>
</g>
</svg>
