<?xml version="1.0" standalone="no"?>
<!DOCTYPE svg PUBLIC "-//W3C//DTD SVG 20010904//EN"
 "http://www.w3.org/TR/2001/REC-SVG-20010904/DTD/svg10.dtd">
<svg version="1.0" xmlns="http://www.w3.org/2000/svg"
 width="256.000000pt" height="256.000000pt" viewBox="0 0 256.000000 256.000000"
 preserveAspectRatio="xMidYMid meet">

<g transform="translate(0.000000,256.000000) scale(0.100000,-0.100000)"
fill="#000000" stroke="none">
<path d="M1214 2419 c-84 -38 -159 -140 -214 -288 -16 -45 -30 -89 -30 -97 0
-15 13 -22 118 -60 71 -25 66 -29 97 66 34 103 83 180 115 180 29 0 77 -81
115 -193 27 -82 23 -80 125 -41 99 37 95 30 65 120 -52 157 -132 269 -220 310
-60 28 -115 29 -171 3z"/>
<path d="M480 1969 c-100 -20 -151 -52 -185 -120 -59 -115 -8 -265 146 -433
l50 -55 72 60 c40 33 74 65 75 70 2 5 -20 35 -50 67 -62 67 -111 152 -106 185
3 20 9 22 82 25 54 2 108 -4 167 -17 81 -19 91 -19 131 -5 43 15 149 21 168 9
10 -6 120 54 120 66 0 7 -47 27 -197 83 -66 24 -191 53 -282 65 -96 12 -127
12 -191 0z"/>
<path d="M1900 1965 c-181 -25 -341 -81 -620 -217 -83 -40 -150 -76 -150 -81
0 -5 16 -27 35 -50 19 -22 35 -44 35 -48 0 -3 7 -23 15 -42 l15 -36 82 44
c183 97 420 189 566 220 77 16 209 20 229 7 29 -18 -19 -111 -115 -221 l-42
-49 77 -65 78 -65 38 36 c88 84 186 269 187 350 0 45 -28 111 -64 150 -30 34
-83 59 -151 71 -70 13 -102 12 -215 -4z"/>
<path d="M885 1650 c-16 -7 -16 -9 -4 -9 9 -1 36 -10 60 -21 24 -11 53 -20 63
-20 17 0 16 4 -9 30 -30 31 -68 38 -110 20z"/>
<path d="M1030 1642 c0 -22 28 -45 46 -38 18 7 17 8 -6 26 -27 21 -40 25 -40
12z"/>
<path d="M794 1583 c-22 -22 -46 -81 -39 -93 4 -6 19 -3 38 7 48 25 126 43
185 43 28 0 52 4 52 8 0 13 -133 52 -177 52 -26 0 -48 -7 -59 -17z"/>
<path d="M1106 1582 c-4 -7 -16 -12 -27 -12 -22 0 -26 -18 -5 -26 8 -3 29 -4
46 -2 l32 3 -19 24 c-14 17 -22 21 -27 13z"/>
<path d="M1610 1550 c-14 -4 -47 -19 -75 -32 -27 -13 -65 -30 -83 -39 l-33
-14 83 -55 c82 -55 181 -125 294 -209 87 -65 242 -218 280 -277 18 -28 35 -67
39 -86 6 -31 4 -36 -17 -41 -12 -4 -48 -7 -78 -7 l-55 0 -2 -48 c-1 -26 -11
-69 -22 -96 -12 -27 -19 -52 -15 -55 3 -3 41 -8 84 -9 90 -5 190 22 240 64 39
34 80 119 80 168 0 48 -50 169 -100 241 -68 100 -288 307 -425 401 -16 11 -57
39 -90 62 -63 44 -66 45 -105 32z"/>
<path d="M910 1501 c-71 -16 -121 -41 -149 -75 -13 -15 1 -61 32 -101 14 -19
16 -18 63 20 26 21 65 58 86 81 21 23 52 47 68 54 38 16 40 40 3 39 -16 0 -62
-8 -103 -18z"/>
<path d="M1075 1509 c-8 -12 -9 -11 26 -26 14 -6 33 -26 42 -44 l16 -33 6 26
c10 40 -2 65 -37 77 -39 14 -45 14 -53 0z"/>
<path d="M1077 1453 c-4 -3 -7 -28 -7 -53 0 -26 -7 -64 -16 -85 -8 -20 -13
-40 -10 -43 10 -10 76 43 82 66 9 33 -4 87 -25 106 -9 9 -21 13 -24 9z"/>
<path d="M930 1368 c-90 -91 -91 -103 -9 -114 42 -6 47 -4 76 29 21 24 33 50
37 83 4 27 9 57 12 67 4 12 0 17 -15 17 -12 0 -53 -33 -101 -82z"/>
<path d="M648 1345 c-25 -18 -84 -71 -130 -117 -206 -203 -286 -379 -229 -503
60 -130 219 -174 453 -125 93 19 286 78 324 98 10 6 34 16 52 22 17 7 32 16
32 20 0 7 -115 80 -126 80 -2 0 -22 11 -43 25 l-40 24 -82 -24 c-213 -64 -379
-74 -379 -23 0 61 129 217 302 365 l38 32 -50 51 c-28 28 -50 57 -50 64 0 7
-6 20 -12 29 -12 15 -17 13 -60 -18z"/>
<path d="M1030 1150 c-14 -4 -47 -8 -73 -9 -36 -1 -57 -8 -83 -27 -19 -15 -34
-30 -34 -34 0 -29 525 -330 576 -330 7 0 16 16 19 38 3 20 17 61 32 90 14 29
24 55 21 57 -2 2 -67 36 -144 75 -146 74 -153 78 -221 123 -44 28 -52 30 -93
17z"/>
<path d="M1635 903 c-36 -10 -83 -54 -99 -94 -18 -43 -13 -67 9 -49 9 8 14 6
19 -6 4 -11 13 -14 30 -10 18 4 25 1 29 -15 4 -16 11 -19 27 -14 19 6 21 4 15
-15 -5 -17 -2 -23 14 -27 15 -4 20 -11 16 -23 -3 -10 2 -25 11 -34 13 -14 14
-19 2 -33 -12 -15 -10 -16 22 -10 63 13 130 82 130 135 0 21 -2 23 -16 11 -13
-11 -17 -10 -26 5 -7 12 -17 16 -33 12 -17 -4 -24 -1 -28 15 -4 16 -11 19 -27
14 -18 -6 -20 -4 -14 19 5 22 3 26 -16 26 -17 0 -20 4 -15 20 4 12 1 27 -5 35
-7 8 -10 22 -6 30 5 15 -2 17 -39 8z"/>
<path d="M1710 901 c0 -6 5 -11 11 -11 6 0 8 -9 4 -20 -4 -11 -2 -20 4 -20 6
0 11 -9 11 -21 0 -12 4 -17 11 -14 6 4 13 -2 16 -13 3 -13 11 -18 19 -15 8 3
14 -1 14 -11 0 -19 16 -21 23 -3 3 8 10 6 21 -8 15 -20 15 -19 16 6 0 30 -34
84 -70 110 -32 23 -80 35 -80 20z"/>
<path d="M1525 700 c10 -47 46 -94 88 -114 44 -20 74 -22 58 -2 -6 7 -9 21 -5
30 4 10 1 16 -9 16 -10 0 -13 7 -10 20 4 14 0 20 -11 20 -9 0 -16 7 -16 16 0
11 -6 14 -20 9 -15 -5 -20 -2 -20 11 0 14 -3 15 -12 6 -9 -9 -16 -8 -31 6 -19
17 -19 16 -12 -18z"/>
<path d="M1105 594 c-16 -7 -54 -21 -82 -29 -33 -10 -53 -22 -53 -31 0 -33 53
-171 90 -233 37 -64 88 -120 140 -155 17 -11 46 -16 96 -16 62 0 76 4 116 30
25 17 64 54 87 83 40 53 101 173 101 201 0 7 -17 22 -37 31 -21 10 -59 37 -84
62 l-46 44 -27 -75 c-30 -81 -77 -161 -101 -170 -16 -6 -57 43 -87 105 -25 51
-58 140 -58 155 0 17 -16 17 -55 -2z"/>
</g>
</svg>
