<?xml version="1.0" standalone="no"?>
<!DOCTYPE svg PUBLIC "-//W3C//DTD SVG 20010904//EN"
 "http://www.w3.org/TR/2001/REC-SVG-20010904/DTD/svg10.dtd">
<svg version="1.0" xmlns="http://www.w3.org/2000/svg"
 width="310.000000pt" height="310.000000pt" viewBox="0 0 310.000000 310.000000"
 preserveAspectRatio="xMidYMid meet">
<metadata>
Created by potrace 1.14, written by Peter Selinger 2001-2017
</metadata>
<g transform="translate(0.000000,310.000000) scale(0.100000,-0.100000)"
fill="#000000" stroke="none">
<path d="M1453 3000 c-74 -37 -132 -98 -190 -201 -41 -73 -113 -256 -113 -289
0 -11 16 -23 48 -34 26 -9 75 -28 110 -42 34 -13 66 -24 71 -24 5 0 19 30 31
68 51 153 124 282 161 282 42 0 116 -127 160 -273 24 -77 24 -77 54 -71 17 4
41 12 55 19 14 6 55 22 93 35 37 13 67 27 67 32 0 17 -49 157 -77 219 -61 133
-147 240 -228 282 -25 12 -66 22 -110 24 -63 4 -76 2 -132 -27z"/>
<path d="M520 2429 c-146 -21 -245 -108 -269 -235 -23 -123 50 -287 213 -477
l67 -78 56 51 c31 28 72 63 92 78 20 14 40 29 45 34 5 4 -17 37 -50 75 -103
117 -164 214 -164 261 0 24 49 42 116 42 53 0 216 -27 275 -46 40 -13 50 -13
82 1 53 22 154 34 212 25 47 -7 55 -5 128 35 l79 42 -104 41 c-335 132 -584
180 -778 151z"/>
<path d="M2380 2429 c-136 -15 -351 -77 -545 -156 -109 -44 -385 -176 -452
-215 l-34 -21 29 -31 c45 -48 69 -87 87 -143 l17 -51 121 63 c67 35 165 82
217 105 52 23 110 48 128 57 85 38 338 112 436 128 113 18 216 15 242 -6 31
-25 -23 -129 -135 -262 l-75 -90 29 -21 c17 -11 61 -49 100 -83 54 -47 73 -59
83 -50 8 6 49 55 93 109 107 134 170 263 177 363 4 62 1 81 -20 126 -71 154
-224 209 -498 178z"/>
<path d="M1055 2023 c-31 -8 -42 -23 -17 -23 13 0 50 -11 83 -26 84 -35 102
-30 60 19 -34 37 -64 45 -126 30z"/>
<path d="M1238 1984 c16 -34 44 -45 58 -23 7 12 -29 45 -58 52 -15 4 -15 2 0
-29z"/>
<path d="M924 1933 c-31 -31 -68 -133 -49 -133 3 0 27 11 53 24 53 26 189 56
257 56 25 0 45 5 45 10 0 6 -8 10 -17 10 -10 0 -49 12 -88 25 -85 30 -175 34
-201 8z"/>
<path d="M1321 1926 c-7 -9 -22 -16 -32 -16 -11 0 -19 -7 -19 -15 0 -10 10
-15 33 -15 17 0 42 -3 55 -6 28 -8 28 8 -1 42 -21 24 -24 25 -36 10z"/>
<path d="M1905 1854 c-55 -24 -118 -53 -140 -63 l-39 -18 31 -16 c54 -28 264
-171 383 -261 296 -224 472 -415 495 -538 7 -37 7 -37 -36 -48 -24 -7 -71 -10
-105 -8 l-62 4 5 -31 c6 -38 -21 -147 -46 -191 l-19 -32 30 -6 c57 -11 200 -6
261 10 86 22 130 47 170 96 104 130 87 279 -56 493 -64 96 -334 357 -487 471
-149 111 -258 184 -274 183 -6 0 -56 -20 -111 -45z"/>
<path d="M1088 1824 c-87 -17 -159 -48 -193 -84 l-28 -29 17 -43 c9 -24 25
-54 35 -67 l18 -24 44 30 c24 17 75 63 114 102 38 40 87 79 107 88 88 39 22
54 -114 27z"/>
<path d="M1280 1825 c0 -8 9 -15 19 -15 28 0 77 -53 86 -92 l7 -33 10 40 c13
57 3 84 -37 101 -45 19 -85 18 -85 -1z"/>
<path d="M1287 1764 c-4 -4 -7 -36 -7 -71 0 -38 -8 -83 -20 -115 -11 -28 -18
-54 -15 -56 9 -9 96 64 102 85 11 45 -3 114 -29 139 -13 14 -27 21 -31 18z"/>
<path d="M1193 1737 c-16 -12 -69 -62 -115 -110 -85 -88 -85 -88 -63 -103 13
-9 48 -18 77 -21 54 -5 55 -5 87 33 32 39 54 100 65 182 7 49 -4 54 -51 19z"/>
<path d="M730 1617 c-36 -28 -119 -105 -185 -172 -300 -300 -378 -559 -213
-711 78 -71 149 -94 299 -94 124 0 226 17 398 66 155 45 371 128 360 138 -7 6
-111 67 -179 104 -36 19 -73 41 -83 47 -15 10 -35 7 -110 -16 -124 -39 -238
-66 -319 -74 -88 -9 -177 1 -185 22 -24 61 157 291 368 469 l78 67 -38 27
c-43 31 -73 71 -105 135 l-21 44 -65 -52z"/>
<path d="M1225 1370 c-16 -4 -58 -8 -93 -9 -57 -1 -68 -5 -108 -37 -24 -20
-44 -41 -44 -46 0 -36 733 -448 756 -425 2 2 8 27 14 55 10 57 29 102 60 149
l22 32 -114 54 c-123 58 -284 147 -387 211 -42 27 -55 29 -106 16z"/>
<path d="M2003 1048 c-48 -16 -107 -76 -128 -131 -19 -52 -15 -68 15 -50 15
10 21 8 33 -10 13 -19 18 -20 36 -9 24 14 45 7 37 -13 -7 -20 15 -37 31 -23
20 16 41 -5 24 -25 -9 -11 -8 -17 3 -27 9 -6 20 -9 25 -6 14 9 25 -14 12 -27
-16 -16 -14 -24 11 -46 18 -17 19 -23 8 -36 -20 -24 -4 -29 42 -16 57 17 134
96 144 146 7 42 1 53 -21 35 -12 -10 -18 -8 -34 11 -17 21 -22 22 -40 12 -28
-18 -31 -17 -31 11 0 26 -22 40 -38 24 -17 -17 -34 0 -22 23 13 24 4 42 -18
34 -21 -8 -33 14 -19 37 10 16 9 22 -7 33 -13 10 -17 21 -12 39 7 29 1 30 -51
14z"/>
<path d="M2100 1054 c0 -4 8 -12 17 -19 15 -11 15 -15 4 -29 -7 -9 -11 -17 -7
-17 3 -1 12 -2 19 -3 7 -1 11 -13 9 -29 -2 -20 1 -25 13 -21 10 4 18 -3 25
-22 8 -21 13 -25 19 -15 11 17 34 4 27 -15 -7 -17 20 -19 28 -1 3 9 9 7 19 -5
19 -24 27 -23 27 2 0 30 -33 90 -67 122 -40 38 -133 74 -133 52z"/>
<path d="M1865 793 c20 -80 76 -143 148 -165 42 -13 60 -4 32 16 -12 9 -15 15
-7 20 7 4 12 14 12 22 0 8 -4 12 -10 9 -17 -11 -32 5 -20 20 15 18 4 36 -15
28 -10 -3 -15 1 -15 14 0 26 -10 35 -26 22 -17 -14 -35 -3 -27 16 6 18 -8 20
-26 3 -10 -11 -14 -10 -22 5 -16 27 -32 21 -24 -10z"/>
<path d="M1346 659 c-10 -6 -60 -26 -111 -43 l-93 -31 28 -89 c62 -193 165
-352 266 -411 55 -32 146 -43 210 -26 102 28 193 123 269 286 63 133 63 126 0
153 -35 16 -74 45 -110 83 -62 64 -61 64 -82 -19 -20 -81 -107 -234 -141 -247
-40 -15 -119 120 -177 303 -17 53 -26 60 -59 41z"/>
</g>
</svg>
